<?xml version="1.0" encoding="UTF-8"?>
<svg id="Livello_6" data-name="Livello 6" xmlns="http://www.w3.org/2000/svg" viewBox="0 0 24.16 24.03">
  <defs>
    <style>
      .cls-1 {
        fill-rule: evenodd;
      }

      .cls-1, .cls-2 {
        fill: #7357d9;
      }
    </style>
  </defs>
  <path class="cls-1" d="M12.06,18.57c3.6,0,6.51-2.92,6.51-6.51s-2.92-6.51-6.51-6.51-6.51,2.92-6.51,6.51,2.92,6.51,6.51,6.51ZM12.06,16.4c2.4,0,4.34-1.94,4.34-4.34s-1.94-4.34-4.34-4.34-4.34,1.94-4.34,4.34,1.94,4.34,4.34,4.34Z"/>
  <path class="cls-2" d="M18.57,4.46c-.6,0-1.09.49-1.09,1.09s.49,1.09,1.09,1.09,1.09-.49,1.09-1.09-.49-1.09-1.09-1.09Z"/>
  <path class="cls-1" d="M.82,3.67C.11,5.06.11,6.89.11,10.54v3.04c0,3.65,0,5.47.71,6.87.62,1.23,1.62,2.22,2.85,2.85,1.39.71,3.22.71,6.87.71h3.04c3.65,0,5.47,0,6.87-.71,1.23-.62,2.22-1.62,2.85-2.85.71-1.39.71-3.22.71-6.87v-3.04c0-3.65,0-5.47-.71-6.87-.62-1.23-1.62-2.22-2.85-2.85C19.05.11,17.23.11,13.58.11h-3.04C6.89.11,5.06.11,3.67.82c-1.23.62-2.22,1.62-2.85,2.85ZM13.58,2.29h-3.04c-1.86,0-3.12,0-4.1.08-.95.08-1.44.22-1.78.39-.82.42-1.48,1.08-1.9,1.9-.17.34-.31.83-.39,1.78-.08.98-.08,2.24-.08,4.1v3.04c0,1.86,0,3.12.08,4.1.08.95.22,1.44.39,1.78.42.82,1.08,1.48,1.9,1.9.34.17.83.31,1.78.39.98.08,2.24.08,4.1.08h3.04c1.86,0,3.12,0,4.1-.08.95-.08,1.44-.22,1.78-.39.82-.42,1.48-1.08,1.9-1.9.17-.34.31-.83.39-1.78.08-.98.08-2.24.08-4.1v-3.04c0-1.86,0-3.12-.08-4.1-.08-.95-.22-1.44-.39-1.78-.42-.82-1.08-1.48-1.9-1.9-.34-.17-.83-.31-1.78-.39-.98-.08-2.24-.08-4.1-.08Z"/>
</svg>