<?xml version="1.0" encoding="UTF-8"?>
<svg id="Livello_3" data-name="Livello 3" xmlns="http://www.w3.org/2000/svg" viewBox="0 0 23.88 23.97">
  <defs>
    <style>
      .cls-1 {
        fill: #7357d9;
      }
    </style>
  </defs>
  <path class="cls-1" d="M22.81,10.79c0,8.03-5.15,7.67-5.75,7.67-.72,0-1.32-.12-1.92-.48-.48-.36-.96-.72-1.2-1.32-.48.6-.96,1.08-1.56,1.32-.6.36-1.2.48-1.92.48-.6,0-1.2-.12-1.68-.36-.48-.24-.96-.72-1.2-1.2-.36-.48-.6-1.08-.72-1.8s-.12-1.56-.12-2.4c.12-1.08.36-2.04.72-3,.36-.84.84-1.68,1.32-2.28.48-.6,1.08-1.08,1.8-1.44.72-.36,1.44-.48,2.16-.48,2.4,0,3.72,1.2,3.96,1.44l-.6,7.43c0,.48-.24,2.16,1.32,2.16.48,0,2.88-.6,2.88-5.63,0-.12,1.08-8.39-7.91-8.39-7.19-.12-8.75,6.95-8.75,9.47,0,10.07,6.35,9.59,8.39,9.59,2.4,0,3.72-.48,3.96-.6l.48,2.16c-.24.24-1.44.84-4.43.84-3.72,0-10.79-.12-10.79-11.99C1.23,10.31,2.19,0,12.62,0s10.19,9.11,10.19,10.79ZM9.74,12.7c-.12,1.08,0,2.04.24,2.64s.72.84,1.44.84c1.32,0,2.04-1.68,2.16-2.16l.6-6.11c-.12,0-.84-.12-1.08-.12-.96,0-1.8.48-2.28,1.32-.6.72-.96,1.92-1.08,3.6Z"/>
</svg>