<?xml version="1.0" encoding="UTF-8"?>
<svg id="Livello_1" data-name="Livello 1" xmlns="http://www.w3.org/2000/svg" viewBox="0 0 22.17 22.15">
  <defs>
    <style>
      .cls-1 {
        stroke: #7357d9;
        stroke-miterlimit: 10;
      }

      .cls-1, .cls-2 {
        fill: #7357d9;
      }
    </style>
  </defs>
  <circle class="cls-1" cx="11.5" cy="11.26" r="6.24"/>
  <g>
    <g>
      <line class="cls-2" x1="5.46" y1="6.54" x2="2.17" y2="4.15"/>
      <polygon class="cls-2" points="5.17 6.94 2.17 4.15 5.76 6.14 5.17 6.94 5.17 6.94"/>
    </g>
    <g>
      <line class="cls-2" x1="3.81" y1="11.3" x2="0" y2="11.37"/>
      <polygon class="cls-2" points="3.82 11.8 0 11.37 3.8 10.8 3.82 11.8 3.82 11.8"/>
    </g>
    <g>
      <line class="cls-2" x1="5.56" y1="16.08" x2="2.64" y2="18.26"/>
      <polygon class="cls-2" points="5.86 16.48 2.64 18.26 5.26 15.68 5.86 16.48 5.86 16.48"/>
    </g>
    <g>
      <line class="cls-2" x1="9.83" y1="18.67" x2="9.13" y2="22.15"/>
      <polygon class="cls-2" points="10.32 18.76 9.13 22.15 9.34 18.57 10.32 18.76 10.32 18.76"/>
    </g>
    <g>
      <line class="cls-2" x1="15.25" y1="17.89" x2="16.94" y2="20.98"/>
      <polygon class="cls-2" points="15.69 17.65 16.94 20.98 14.81 18.12 15.69 17.65 15.69 17.65"/>
    </g>
    <g>
      <line class="cls-2" x1="18.67" y1="13.86" x2="22.17" y2="15.28"/>
      <polygon class="cls-2" points="18.86 13.4 22.17 15.28 18.49 14.33 18.86 13.4 18.86 13.4"/>
    </g>
    <g>
      <line class="cls-2" x1="10.17" y1="3.68" x2="9.76" y2="0"/>
      <polygon class="cls-2" points="9.67 3.73 9.76 0 10.67 3.62 9.67 3.73 9.67 3.73"/>
    </g>
    <g>
      <line class="cls-2" x1="15.43" y1="4.62" x2="17.46" y2="1.36"/>
      <polygon class="cls-2" points="15 4.36 17.46 1.36 15.85 4.88 15 4.36 15 4.36"/>
    </g>
    <g>
      <line class="cls-2" x1="18.77" y1="8.77" x2="22.17" y2="7.4"/>
      <polygon class="cls-2" points="18.59 8.31 22.17 7.4 18.96 9.24 18.59 8.31 18.59 8.31"/>
    </g>
    <g>
      <line class="cls-2" x1="17.32" y1="6.28" x2="19.39" y2="4.43"/>
      <polygon class="cls-2" points="16.66 5.53 19.39 4.43 17.99 7.02 16.66 5.53 16.66 5.53"/>
    </g>
    <g>
      <line class="cls-2" x1="12.89" y1="3.66" x2="13.39" y2=".93"/>
      <polygon class="cls-2" points="11.9 3.48 13.39 .93 13.87 3.84 11.9 3.48 11.9 3.48"/>
    </g>
    <g>
      <line class="cls-2" x1="7.48" y1="4.68" x2="6.05" y2="2.3"/>
      <polygon class="cls-2" points="6.62 5.19 6.05 2.3 8.34 4.16 6.62 5.19 6.62 5.19"/>
    </g>
    <g>
      <line class="cls-2" x1="4.24" y1="8.72" x2="1.62" y2="7.82"/>
      <polygon class="cls-2" points="3.92 9.67 1.62 7.82 4.57 7.78 3.92 9.67 3.92 9.67"/>
    </g>
    <g>
      <line class="cls-2" x1="4.24" y1="13.59" x2="1.58" y2="14.37"/>
      <polygon class="cls-2" points="4.52 14.55 1.58 14.37 3.96 12.63 4.52 14.55 4.52 14.55"/>
    </g>
    <g>
      <line class="cls-2" x1="7.39" y1="17.83" x2="5.9" y2="20.18"/>
      <polygon class="cls-2" points="8.23 18.37 5.9 20.18 6.55 17.3 8.23 18.37 8.23 18.37"/>
    </g>
    <g>
      <line class="cls-2" x1="12.64" y1="18.81" x2="13.09" y2="21.54"/>
      <polygon class="cls-2" points="13.63 18.65 13.09 21.54 11.66 18.97 13.63 18.65 13.63 18.65"/>
    </g>
    <g>
      <line class="cls-2" x1="17.29" y1="16.26" x2="19.42" y2="18.05"/>
      <polygon class="cls-2" points="17.94 15.5 19.42 18.05 16.65 17.03 17.94 15.5 17.94 15.5"/>
    </g>
    <g>
      <line class="cls-2" x1="19.11" y1="11.37" x2="21.89" y2="11.37"/>
      <polygon class="cls-2" points="19.11 10.37 21.89 11.37 19.11 12.37 19.11 10.37 19.11 10.37"/>
    </g>
  </g>
</svg>