<?xml version="1.0" encoding="UTF-8"?>
<svg id="Livello_7" data-name="Livello 7" xmlns="http://www.w3.org/2000/svg" viewBox="0 0 24.16 24.03">
  <defs>
    <style>
      .cls-1 {
        fill: #7357d9;
      }
    </style>
  </defs>
  <path class="cls-1" d="M16.7,10.81c-1.54,0-1.75,1.54-1.75,1.54h3.27s.02-1.54-1.52-1.54Z"/>
  <path class="cls-1" d="M9.27,12.34h-2.9v2.67h2.76c.42-.01,1.19-.13,1.19-1.3,0-1.39-1.05-1.37-1.05-1.37Z"/>
  <path class="cls-1" d="M12,.06C5.4.06.06,5.4.06,12s5.35,11.94,11.94,11.94,11.94-5.35,11.94-11.94S18.6.06,12,.06ZM14.52,7.39h4.11v1.23h-4.11v-1.23ZM12.44,13.83c0,3.04-3.17,2.94-3.17,2.94h-5.18V6.81h5.18c1.58,0,2.82.87,2.82,2.66s-1.52,1.9-1.52,1.9c2,0,1.87,2.47,1.87,2.47h0ZM20.13,13.67h-5.17c0,1.85,1.75,1.73,1.75,1.73,1.66,0,1.6-1.07,1.6-1.07h1.75c0,2.85-3.41,2.65-3.41,2.65-4.09,0-3.83-3.81-3.83-3.81,0,0,0-3.83,3.83-3.83,4.04,0,3.47,4.33,3.47,4.33h0Z"/>
  <path class="cls-1" d="M9.97,9.62c0-1.03-.7-1.03-.7-1.03h-2.9v2.22h2.72c.47,0,.89-.15.89-1.19Z"/>
</svg>