<?xml version="1.0" encoding="UTF-8"?>
<svg id="Livello_6" data-name="Livello 6" xmlns="http://www.w3.org/2000/svg" viewBox="0 0 24.16 24.03">
  <defs>
    <style>
      .cls-1 {
        fill: #7357d9;
      }
    </style>
  </defs>
  <path class="cls-1" d="M22.08,0H2.05c-.26-.01-.52.03-.76.11-.24.09-.47.22-.66.4-.19.17-.35.38-.46.62C.07,1.37.01,1.62,0,1.88v20.07c.02.54.24,1.05.62,1.44.38.38.9.6,1.44.62h20.02c.53-.02,1.02-.25,1.38-.64s.55-.89.54-1.42V1.88c0-.25-.04-.5-.14-.73-.1-.23-.24-.44-.42-.62-.18-.18-.39-.31-.63-.4-.23-.09-.49-.13-.74-.12ZM7.5,20.01h-3.49v-10.69h3.49v10.69ZM5.83,7.7c-.24,0-.49-.03-.71-.12-.23-.09-.43-.23-.6-.4-.17-.17-.31-.38-.39-.61-.09-.23-.13-.47-.12-.71-.01-.25.03-.49.12-.72.09-.23.23-.44.4-.61.18-.17.38-.31.62-.4.23-.09.48-.13.72-.11.24,0,.49.03.71.12.23.09.43.23.6.4.17.17.31.38.39.61.09.23.13.47.12.71.01.25-.03.49-.12.72-.09.23-.23.44-.4.61-.18.17-.38.31-.62.4-.23.09-.48.13-.72.11ZM20.01,20.01h-3.51v-5.85c0-1.39-.49-2.35-1.74-2.35-.39,0-.76.13-1.08.35-.31.23-.55.54-.68.91-.1.27-.14.56-.12.85v6.09h-3.45v-10.69h3.45v1.5c.31-.56.76-1.03,1.32-1.35.56-.32,1.19-.48,1.83-.46,2.26,0,3.97,1.5,3.97,4.69v6.31Z"/>
</svg>